<svg xmlns="http://www.w3.org/2000/svg" viewBox="0 0 48 48"><title>ui-controls-editor--tags</title><g id="ui-controls-editor_tags" data-name="ui-controls-editor@tags"><path d="M19.3431,9H8a2,2,0,0,0-2,2V22.3431a4,4,0,0,0,1.1716,2.8285L23.5858,41.5858a2,2,0,0,0,2.8284,0L38.5858,29.4142a2,2,0,0,0,0-2.8284L22.1716,10.1716A4,4,0,0,0,19.3431,9Z" style="fill:none;stroke:#333;stroke-linejoin:round;stroke-width:2px"/><path d="M42,24,24.1716,6.1716A4,4,0,0,0,21.3431,5H11" style="fill:none;stroke:#333;stroke-linecap:round;stroke-linejoin:round;stroke-width:2px"/><circle cx="14.4385" cy="17.5321" r="2" style="fill:none;stroke:#333;stroke-linejoin:round;stroke-width:2px"/></g></svg>