<svg id="Capa_1" enable-background="new 0 0 511.465 511.465" viewBox="0 0 511.465 511.465" xmlns="http://www.w3.org/2000/svg"><g><path d="m56.097 0c-8.284 0-15 6.716-15 15v399.25c0 8.284 6.716 15 15 15h127.612l60.076 76.48c2.844 3.62 7.192 5.734 11.796 5.734s8.953-2.114 11.796-5.734l60.075-76.48h127.916c8.284 0 15-6.716 15-15v-399.25c0-8.284-6.716-15-15-15zm384.271 399.25h-120.208c-4.603 0-8.952 2.114-11.796 5.734l-52.784 67.197-52.784-67.197c-2.844-3.62-7.192-5.734-11.796-5.734h-119.903v-369.25h369.271z"/><path d="m116.776 328.711h25.457v25.456c0 8.284 6.716 15 15 15h59c8.284 0 15-6.716 15-15v-25.456h50v25.456c0 8.284 6.716 15 15 15h59c8.284 0 15-6.716 15-15v-25.456h24.456c8.284 0 15-6.716 15-15v-59c0-8.284-6.716-15-15-15h-24.456v-50h24.456c8.284 0 15-6.716 15-15v-59c0-8.284-6.716-15-15-15h-24.456v-25.457c0-8.284-6.716-15-15-15h-59c-8.284 0-15 6.716-15 15v25.457h-50v-25.457c0-8.284-6.716-15-15-15h-59c-8.284 0-15 6.716-15 15v25.457h-25.457c-8.284 0-15 6.716-15 15v59c0 8.284 6.716 15 15 15h25.457v50h-25.457c-8.284 0-15 6.716-15 15v59c0 8.284 6.716 15 15 15zm15-59h25.457c8.284 0 15-6.716 15-15v-80c0-8.284-6.716-15-15-15h-25.457v-29h25.457c8.284 0 15-6.716 15-15v-25.457h29v25.457c0 8.284 6.716 15 15 15h80c8.284 0 15-6.716 15-15v-25.457h29v25.457c0 8.284 6.716 15 15 15h24.456v29h-24.456c-8.284 0-15 6.716-15 15v80c0 8.284 6.716 15 15 15h24.456v29h-24.456c-8.284 0-15 6.716-15 15v25.456h-29v-25.456c0-8.284-6.716-15-15-15h-80c-8.284 0-15 6.716-15 15v25.456h-29v-25.456c0-8.284-6.716-15-15-15h-25.457z"/><path d="m216.232 269.711h80c8.284 0 15-6.716 15-15v-80c0-8.284-6.716-15-15-15h-80c-8.284 0-15 6.716-15 15v80c0 8.284 6.716 15 15 15zm15-80h50v50h-50z"/></g><g/><g/><g/><g/><g/><g/><g/><g/><g/><g/><g/><g/><g/><g/><g/></svg>