<svg xmlns="http://www.w3.org/2000/svg" viewBox="0 0 24 24"><path d="M19,13c-1.858276,0-3.410706,1.279724-3.857971,3h-2.142029v-1c0-.552246-.447754-1-1-1s-1,.447754-1,1v1h-2v-1c0-.552246-.447754-1-1-1s-1,.447754-1,1v1h-1c-.552246,0-1,.447754-1,1s.447754,1,1,1h9.142029c.447266,1.720276,1.999695,3,3.857971,3,2.205566,0,4-1.794434,4-4s-1.794434-4-4-4ZM19,19c-1.103027,0-2-.896973-2-2s.896973-2,2-2,2,.896973,2,2-.896973,2-2,2ZM14,22c0,.552246-.447754,1-1,1h-7c-2.756836,0-5-2.243164-5-5V6C1,3.243164,3.243164,1,6,1h8c2.756836,0,5,2.243164,5,5v4c0,.552246-.447754,1-1,1s-1-.447754-1-1v-4c0-1.654297-1.345703-3-3-3H6c-1.654297,0-3,1.345703-3,3v12c0,1.654297,1.345703,3,3,3h7c.552734,0,1,.447754,1,1ZM15,11c0,.552246-.447754,1-1,1H6c-.552246,0-1-.447754-1-1s.447754-1,1-1h8c.552246,0,1,.447754,1,1ZM15,7c0,.552246-.447754,1-1,1H6c-.552246,0-1-.447754-1-1s.447754-1,1-1h8c.552246,0,1,.447754,1,1Z"/></svg>
